<?xml version="1.0" standalone="no"?>
<!DOCTYPE svg PUBLIC "-//W3C//DTD SVG 20010904//EN"
 "http://www.w3.org/TR/2001/REC-SVG-20010904/DTD/svg10.dtd">
<svg version="1.0" xmlns="http://www.w3.org/2000/svg"
 width="700.000000pt" height="700.000000pt" viewBox="0 0 700.000000 700.000000"
 preserveAspectRatio="xMidYMid meet">
<metadata>
Created by potrace 1.14, written by Peter Selinger 2001-2017
</metadata>
<g transform="translate(0.000000,700.000000) scale(0.100000,-0.100000)"
fill="#000000" stroke="none">
<path d="M5184 6488 c-45 -3 -135 -16 -200 -27 -66 -11 -136 -22 -158 -25 -21
-4 -41 -8 -45 -10 -3 -3 -27 -7 -51 -11 -25 -3 -52 -8 -60 -10 -8 -2 -28 -7
-45 -9 -68 -12 -136 -26 -240 -51 -60 -15 -118 -27 -128 -28 -13 -1 -22 -17
-33 -57 -9 -30 -22 -73 -29 -95 -18 -56 -53 -230 -59 -292 -2 -31 0 -57 7 -66
7 -8 46 -25 87 -37 81 -24 174 -69 260 -124 58 -38 202 -174 196 -185 -2 -3
-7 -58 -10 -121 -14 -256 -29 -392 -67 -625 -24 -145 -26 -153 -33 -185 -3
-14 -8 -36 -10 -50 -16 -93 -122 -535 -164 -685 -28 -97 -90 -307 -106 -358
-80 -254 -109 -343 -173 -537 -74 -220 -215 -626 -253 -725 -151 -390 -159
-410 -222 -545 -114 -244 -177 -218 -328 134 -50 116 -163 413 -195 512 -9 27
-20 58 -25 69 -8 18 -38 114 -155 490 -54 176 -132 444 -231 800 -35 127 -73
262 -84 300 -11 39 -28 104 -39 145 -11 41 -28 109 -39 150 -39 141 -165 633
-177 685 -2 11 -6 29 -9 40 -6 21 -45 188 -51 215 -2 8 -12 51 -24 95 -11 44
-22 91 -25 105 -3 14 -7 34 -10 45 -26 117 -79 369 -92 440 -4 26 -39 205 -50
258 -13 66 -19 68 -198 68 -119 0 -188 -4 -315 -16 -138 -14 -512 -160 -527
-207 -7 -22 -7 -174 0 -233 2 -16 6 -59 10 -95 3 -36 8 -74 10 -85 2 -11 7
-40 11 -65 4 -25 9 -54 11 -65 16 -82 27 -144 31 -170 2 -16 6 -36 9 -44 4
-12 30 -134 40 -187 2 -12 33 -140 69 -284 60 -243 92 -364 130 -495 51 -175
79 -274 85 -300 20 -79 186 -612 287 -919 408 -1247 749 -2147 944 -2491 60
-106 81 -140 116 -189 l33 -46 57 5 c32 2 128 7 213 10 174 7 288 13 340 20
19 2 69 7 110 11 41 3 84 8 95 10 11 2 45 8 75 14 93 16 112 20 190 41 108 30
221 76 250 102 51 45 115 168 227 437 35 85 68 164 73 175 5 11 43 112 86 225
42 113 80 214 85 225 5 11 15 38 22 60 8 22 57 159 110 305 302 842 684 2113
866 2885 17 72 42 177 55 235 14 58 27 116 30 130 3 14 25 124 50 245 57 284
93 520 111 730 10 115 14 335 7 336 -28 5 -664 3 -728 -3z"/>
</g>
</svg>
