<?xml version="1.0" standalone="no"?>
<!DOCTYPE svg PUBLIC "-//W3C//DTD SVG 20010904//EN"
 "http://www.w3.org/TR/2001/REC-SVG-20010904/DTD/svg10.dtd">
<svg version="1.0" xmlns="http://www.w3.org/2000/svg"
 width="500.000000pt" height="500.000000pt" viewBox="0 0 500.000000 500.000000"
 preserveAspectRatio="xMidYMid meet">

<g transform="translate(0.000000,500.000000) scale(0.100000,-0.100000)"
fill="#000000" stroke="none">
<path d="M3875 4649 c-233 -17 -465 -52 -688 -106 -120 -28 -151 -39 -163 -57
-27 -42 -65 -216 -62 -285 l3 -64 54 -13 c68 -18 196 -85 250 -130 69 -60 75
-79 68 -229 -22 -448 -142 -966 -406 -1746 -187 -554 -349 -952 -398 -977 -10
-6 -28 -6 -40 -1 -63 23 -266 552 -442 1149 -214 727 -486 1821 -531 2138 -11
73 -15 83 -36 88 -13 3 -95 4 -181 1 -183 -5 -254 -21 -428 -95 l-110 -47 2
-105 c8 -391 209 -1177 591 -2310 321 -951 539 -1483 659 -1609 l43 -44 177 7
c309 12 525 45 680 105 78 31 84 35 117 89 129 214 473 1155 710 1942 304
1013 465 1728 483 2146 6 132 5 141 -13 149 -29 12 -206 14 -339 4z"/>
</g>
</svg>
